<?xml version="1.0" encoding="utf-8"?>
<!DOCTYPE svg PUBLIC "-//W3C//DTD SVG 1.1//EN" "http://www.w3.org/Graphics/SVG/1.1/DTD/svg11.dtd">
<svg version="1.1" id="Capa_1" xmlns="http://www.w3.org/2000/svg" xmlns:xlink="http://www.w3.org/1999/xlink" x="0px" y="0px"
	 width="67px" height="50px" viewBox="0 0 400 300" enable-background="new 0 0 400 300" xml:space="preserve">
<g>
	<path fill="#E75294" d="M295.328,146.686c3.359-4.73,8.845-7.131,12.547-11.381c2.331-2.742,5.21-5.554,5.553-9.325
		c0.275-3.703-2.536-6.582-5.072-8.981c-1.303-1.44-3.564-1.372-5.349-0.891c-5.622,1.988-9.735,6.718-13.094,11.45
		c-2.604,3.701-4.39,8.706-2.399,13.095C288.814,143.737,291.832,146.686,295.328,146.686z"/>
	<path fill="#E75294" d="M361.821,180.348c-0.078-1.061-0.927-2.547-1.432-3.291c-1.401-2.063-2.262-5.689-5.277-5.621
		c-1.576,1.166-2.605,2.947-3.839,4.389c-9.53,11.791-22.077,20.703-35.377,27.768c-2.948,1.37-6.582,2.946-9.735,1.37
		c-2.47-1.438-3.017-4.524-3.563-7.062c10.42-8.229,20.431-17.553,26.941-29.344c1.509-2.947,3.018-6.17,3.086-9.6
		c-0.068-3.496-3.086-5.828-5.485-7.952c-2.811-2.537-6.993-3.702-10.558-2.126c-3.771,1.646-6.581,4.73-9.599,7.404
		c-8.091,8.297-15.151,18.441-16.591,30.166c-0.343,2.125,0.067,4.32-0.274,6.445c-3.565,3.428-7.681,6.442-12.343,8.09
		c-1.985,0.547-5.002,0.959-6.031-1.371c-0.686-2.537,0.137-5.211,1.029-7.68c1.508-4.183,3.494-8.158,5.553-12.135
		c3.085-5.828,7.884-10.422,12.34-15.22c1.439-1.784,3.497-3.771,3.154-6.31c-1.439-2.193-3.293-4.045-4.525-6.307
		c-0.891-1.783-3.291-1.234-4.457-0.068c-9.117,6.855-14.604,17.276-19.333,27.354c-1.508,2.263-5.276,2.673-7.267,0.959
		c-1.853-3.153-1.439-6.991-2.812-10.282c-0.411-0.961-1.577-1.304-2.606-1.027c-3.152,0.479-6.032,2.193-8.362,4.455
		c-1.577,1.371-0.617,3.633-0.617,5.483c0.479,3.019-1.233,5.761-2.399,8.503c-2.469,5.143-4.73,10.559-8.502,14.877
		c-1.92,2.194-3.7,4.661-6.375,5.965c-1.987,0.686-3.224-1.508-3.635-3.084c-0.822-3.91-0.96-7.886-0.822-11.861
		c-0.138-2.332,1.988-3.771,3.291-5.418c16.66-19.195,31.879-39.763,44.222-61.976c4.317-8.09,8.569-16.249,11.518-24.956
		c1.097-3.153-0.96-6.238-2.741-8.775c-2.194-2.743-5.416-5.623-9.188-5.005c-3.497,1.097-6.171,3.771-8.708,6.238
		c-15.699,16.111-28.657,34.896-37.845,55.464c-5.69,12.752-9.872,26.328-11.998,40.176c-1.782,2.674-4.182,5.004-6.992,6.582
		c-1.439,0.754-3.565,0.068-3.84-1.646c-0.548-3.224,0.479-6.446,1.646-9.394c2.058-5.416,4.938-10.489,6.72-15.973
		c0.892-3.154,0.479-7.27-2.332-9.324c-1.918-1.853-4.937-2.537-6.032-5.144c-0.891-3.153,1.304-5.965,2.058-8.845
		c0.686-1.645,0-3.633-1.646-4.455c-2.948-1.371-6.924-1.714-9.529,0.615c-4.593,3.977-6.102,10.422-5.827,16.249
		c-2.537,5.965-5.69,11.588-8.638,17.347c-2.674,5.349-5.759,10.489-9.325,15.288c-1.508,1.854-3.084,3.771-5.347,4.662
		c-1.714-0.754-1.097-3.152-0.892-4.662c2.331-8.639,6.719-16.592,9.667-25.021c1.372-4.185-4.044-6.515-7.335-5.556
		c-2.057,1.028-3.154,3.292-4.457,5.073c-5.073,7.748-8.98,16.111-13.849,23.929c-2.125,3.291-4.731,6.306-8.021,8.501
		c-1.577,1.096-4.045,1.027-5.211-0.617c-2.948-3.154-2.811-7.884-1.577-11.725c1.989-6.307,5.76-11.791,9.873-16.865
		c3.702-4.455,7.542-8.98,12.341-12.34c2.399-1.783,5.758-2.881,8.57-1.305c2.674,1.234,4.525,4.457,7.747,4.32
		c3.703-0.48,5.21-4.73,5.21-7.953c0.068-3.497-3.085-5.896-6.17-6.514c-9.735-2.193-19.951,1.303-27.492,7.404
		c-5.828,4.525-10.695,10.283-14.397,16.593c-0.411,0.616-0.96,1.164-1.439,1.78c-2.057-8.362-8.159-16.248-16.866-18.168
		c1.646-1.987,4.114-3.084,6.033-4.73c8.707-6.238,16.591-13.78,22.488-22.83c3.908-5.964,8.295-12.203,8.981-19.539
		c0.754-8.295-3.017-16.522-8.707-22.418c-5.759-6.72-14.535-10.216-23.173-11.245c-10.627-1.166-21.322,0.96-31.332,4.389
		c-8.021,2.673-16.18,5.553-22.83,10.9c-4.662,3.633-6.993,9.393-8.295,15.015c-0.274,1.234-0.207,3.291,1.439,3.496
		c1.577,0.274,3.154-0.411,4.594-0.959c5.828-2.742,11.723-5.142,17.688-7.542c-0.274,2.193-1.166,4.25-1.782,6.375
		c-8.433,25.848-16.729,51.694-24.956,77.54c-3.085,10.08-6.582,20.088-9.256,30.373c0,0-0.789,4.479-0.789,6.824
		c0,2.152,0.789,3.666,0.789,3.666c1.919,3.428,5.69,5.416,9.53,5.553c1.92,0.07,4.525,0.07,5.554-1.92
		c0.96-2.742,1.439-5.623,2.331-8.365c1.439,1.854,1.988,4.185,3.359,6.033c3.154,5.074,8.913,8.299,14.877,8.504
		c7.816,0.342,15.426-2.676,21.939-6.719c10.764-6.72,18.58-17.143,24.682-28.043c2.194,3.705,4.25,7.815,7.952,10.285
		c3.428,2.604,8.502,2.262,11.861-0.343c4.457-3.429,7.679-8.091,11.106-12.479c1.097,3.086,1.988,6.446,4.593,8.639
		c3.703,3.429,9.736,2.471,13.301-0.686c5.005-4.318,8.364-10.076,11.655-15.699c4.388-7.404,8.227-15.082,12.135-22.762
		c1.439,0.961,3.565,1.92,3.428,4.045c-0.137,3.43-1.989,6.514-3.222,9.668c-2.262,5.553-4.456,11.723-3.017,17.756
		c1.098,5.144,5.622,8.775,10.421,10.354c3.771,1.232,7.679-0.549,10.764-2.743c0.48,6.239,3.702,12.272,9.118,15.563
		c3.36,2.332,7.885,2.47,11.45,0.549c6.17-3.152,10.42-8.98,13.985-14.809c2.947-5.211,6.169-10.56,7.062-16.592
		c2.535,1.232,5.072,2.398,7.814,2.947c-0.343,3.359-0.822,7.063,0.893,10.217c2.398,4.523,6.308,8.706,11.518,9.939
		c7.063,1.166,13.781-2.469,19.403-6.377c1.645,1.646,3.016,3.703,4.866,5.144c4.662,3.976,10.832,6.033,16.935,5.483
		c9.805-0.547,18.169-6.17,25.916-11.654c7.268-5.21,14.516-10.742,20.019-17.962C361.081,183.764,361.992,182.658,361.821,180.348z
		 M227.182,169.516c3.907-11.176,8.569-22.007,13.985-32.497c5.896-10.97,12.614-21.666,21.596-30.441
		c0.755-0.616,1.44-1.645,2.605-1.439c-0.068,2.057-1.097,3.908-1.851,5.828c-8.914,21.254-20.774,41.271-35.445,59.029
		c-0.411,0.412-0.823,0.891-1.305,1.305C226.906,170.818,227.044,169.928,227.182,169.516z M87.525,100.682
		c-1.577-2.88-4.456-4.731-6.239-7.405c8.981-3.908,18.305-7.335,28.109-8.844c5.004-0.685,10.42-1.028,15.22,1.097
		c3.771,1.783,7.473,4.731,8.57,8.982c1.303,4.729-0.617,9.529-2.605,13.78c-4.113,7.953-10.01,14.809-16.042,21.459
		c-6.376,5.554-12.958,10.969-20.157,15.494c-2.194,1.234-4.388,2.743-6.924,2.88c-4.456,0.549-8.707,1.919-13.026,2.811
		c3.497-12.202,7.678-24.201,11.312-36.335C86.84,110.075,88.554,105.344,87.525,100.682z M97.466,206.676
		c-4.456,4.318-9.393,8.225-14.877,11.037c-2.538,1.232-5.553,2.262-8.295,1.096c-1.92-1.166-3.291-3.357-3.154-5.689
		c-0.069-2.537,1.44-4.729,2.88-6.648c3.427-4.318,8.158-7.885,13.78-8.775c3.154-0.617,6.787-1.098,9.599,0.754
		C99.935,200.365,99.043,204.413,97.466,206.676z M111.589,179.523c-0.891,5.211-2.879,10.147-5.485,14.674
		c-1.028-0.412-1.645-1.371-2.468-2.127c-4.867-4.457-11.586-6.855-18.168-6.443c-8.295,0.615-15.837,4.936-22.145,10.146
		c-0.96,0.754-1.783,1.783-3.017,2.264c3.154-10.766,6.239-21.598,9.393-32.361c7.336,0.069,14.603-1.714,21.39-4.455
		c1.303-0.48,2.537-1.439,3.908-1.166c5.073,0.616,10.352,2.469,13.712,6.444C111.727,170.064,112.344,175.068,111.589,179.523z
		 M320.216,158.477c0.822-0.479,1.646-1.508,2.742-1.027c0.343,1.166,0.069,2.398-0.479,3.429
		c-4.046,8.981-10.559,16.729-18.442,22.624c-0.548,0.412-1.165,0.686-1.851,0.822C304.378,173.697,311.577,164.717,320.216,158.477
		z"/>
	<polygon fill="#E75294" points="337.454,209.631 338.945,209.631 338.945,213.531 339.551,213.531 339.551,209.631
		341.043,209.631 341.043,209.104 337.454,209.104 	"/>
	<path fill="#E75294" d="M343.71,212.846l-1.271-3.74h-0.859v4.426h0.572v-2.612c0-0.104-0.004-0.267-0.01-0.489
		c-0.007-0.222-0.009-0.387-0.009-0.494v-0.139l1.275,3.734h0.593l1.265-3.734c0,0.241-0.002,0.465-0.006,0.674
		s-0.006,0.359-0.006,0.448v2.612h0.572v-4.426h-0.854L343.71,212.846z"/>
</g>
</svg>
